<svg width="40" height="41" viewBox="0 0 40 41" fill="none" xmlns="http://www.w3.org/2000/svg">
<path d="M12.1507 21.7831H5.46901C4.75855 21.7831 4.1665 21.2165 4.1665 20.4998C4.1665 19.7998 4.75855 19.2165 5.46901 19.2165H12.1507L12.1512 11.25C12.1512 7.16665 15.5934 3.83331 19.81 3.83331H28.2088C32.4082 3.83331 35.8332 7.16665 35.8332 11.2333V29.7666C35.8332 33.85 32.4082 37.1666 28.1744 37.1666H19.7928C15.5934 37.1666 12.1512 33.85 12.1512 29.7833V21.7833H22.8219L20.0681 24.45C19.5518 24.95 19.5518 25.7666 20.0681 26.2666C20.3263 26.5166 20.6705 26.6333 21.0147 26.6333C21.3417 26.6333 21.686 26.5166 21.9441 26.2666L26.9696 21.4166C27.2278 21.1833 27.3655 20.85 27.3655 20.5C27.3655 20.1666 27.2278 19.8333 26.9696 19.6L21.9441 14.75C21.4278 14.25 20.5845 14.25 20.0681 14.75C19.5518 15.25 19.5518 16.0666 20.0681 16.5666L22.8219 19.2166H12.1512L12.1507 21.7831Z" fill="#F37F02"/>
</svg>
