<svg width="42" height="50" viewBox="0 0 42 50" fill="none" xmlns="http://www.w3.org/2000/svg">
<path d="M23.0342 44.1294L19.6568 48.2125L20.6085 49L24.9354 43.77L24.8536 42.9008L19.6236 38.5739L18.8362 39.5257L22.9185 42.9038C22.9185 42.9038 20.1581 43.2771 19.2334 43.2525C11.5022 43.0373 3.14853 35.8691 2.31478 27.0635C1.86513 22.304 3.29584 17.6579 6.34159 13.9758L5.38984 13.1884C2.13431 17.1241 0.605649 22.0911 1.08692 27.1823C1.97774 36.6072 10.5936 44.4919 19.2179 44.4873C20.9417 44.4842 23.0342 44.1294 23.0342 44.1294Z" fill="white" stroke="white"/>
<path d="M19.4525 5.86825L22.8276 1.78747L21.8759 1L17.5498 6.22998L17.6339 7.09766L22.8639 11.4237L23.6498 10.4743L19.5674 7.09689C24.7311 6.6079 29.2662 7.27351 33.4619 10.6123C37.2473 13.6241 39.7138 18.1176 40.1712 22.9372C40.6231 27.6944 39.1924 32.3452 36.1467 36.0272L37.0953 36.8116C40.3524 32.875 41.8811 27.9073 41.3998 22.8208C40.8992 17.5191 38.1142 12.5906 33.8768 9.37445C29.4744 6.03331 24.7596 5.37233 19.4525 5.86825Z" fill="white" stroke="white"/>
<path d="M27.2601 15.4375H26.0245V22.8394H20.4721L16.5224 15.4375H14.9197V22.8394H12.4525V24.075H14.9197V26.5422H12.4525V27.7786H14.9197V35.1805H16.1515V27.7786H21.7077L25.6574 35.1805H27.2601V27.7786H29.7274V26.5422H27.2601V24.075H29.7274V22.8394H27.2601V15.4375ZM16.1515 17.3657L19.0746 22.8394H16.1515V17.3657ZM16.1515 26.5422V24.075H19.7309L21.0475 26.5422H16.1515ZM26.0245 33.2515L23.1052 27.7778H26.0245V33.2515ZM26.0245 26.5422H22.4481L21.1308 24.075H26.0237V26.5422H26.0245Z" fill="white" stroke="white"/>
</svg>
