<svg width="173" height="114" viewBox="0 0 173 114" fill="none" xmlns="http://www.w3.org/2000/svg">
<circle cx="171.004" cy="112.448" r="1" transform="rotate(-179.514 171.004 112.448)" fill="#2682D9"/>
<circle cx="161.005" cy="112.363" r="1" transform="rotate(-179.514 161.005 112.363)" fill="#2682D9"/>
<circle cx="151.005" cy="112.278" r="1" transform="rotate(-179.514 151.005 112.278)" fill="#2682D9"/>
<circle cx="141.005" cy="112.193" r="1" transform="rotate(-179.514 141.005 112.193)" fill="#2682D9"/>
<circle cx="131.006" cy="112.108" r="1" transform="rotate(-179.514 131.006 112.108)" fill="#2682D9"/>
<circle cx="121.006" cy="112.023" r="1" transform="rotate(-179.514 121.006 112.023)" fill="#2682D9"/>
<circle cx="111.006" cy="111.938" r="1" transform="rotate(-179.514 111.006 111.938)" fill="#2682D9"/>
<circle cx="101.007" cy="111.853" r="1" transform="rotate(-179.514 101.007 111.853)" fill="#2682D9"/>
<circle cx="91.0071" cy="111.768" r="1" transform="rotate(-179.514 91.0071 111.768)" fill="#2682D9"/>
<circle cx="171.089" cy="102.448" r="1" transform="rotate(-179.514 171.089 102.448)" fill="#2682D9"/>
<circle cx="161.09" cy="102.363" r="1" transform="rotate(-179.514 161.09 102.363)" fill="#2682D9"/>
<circle cx="151.09" cy="102.278" r="1" transform="rotate(-179.514 151.09 102.278)" fill="#2682D9"/>
<circle cx="141.09" cy="102.193" r="1" transform="rotate(-179.514 141.09 102.193)" fill="#2682D9"/>
<circle cx="131.091" cy="102.108" r="1" transform="rotate(-179.514 131.091 102.108)" fill="#2682D9"/>
<circle cx="121.091" cy="102.023" r="1" transform="rotate(-179.514 121.091 102.023)" fill="#2682D9"/>
<circle cx="111.091" cy="101.939" r="1" transform="rotate(-179.514 111.091 101.939)" fill="#2682D9"/>
<circle cx="101.092" cy="101.854" r="1" transform="rotate(-179.514 101.092 101.854)" fill="#2682D9"/>
<circle cx="91.092" cy="101.769" r="1" transform="rotate(-179.514 91.092 101.769)" fill="#2682D9"/>
<circle cx="171.174" cy="92.4482" r="1" transform="rotate(-179.514 171.174 92.4482)" fill="#2682D9"/>
<circle cx="161.175" cy="92.3634" r="1" transform="rotate(-179.514 161.175 92.3634)" fill="#2682D9"/>
<circle cx="151.175" cy="92.2785" r="1" transform="rotate(-179.514 151.175 92.2785)" fill="#2682D9"/>
<circle cx="141.175" cy="92.1936" r="1" transform="rotate(-179.514 141.175 92.1936)" fill="#2682D9"/>
<circle cx="131.176" cy="92.1087" r="1" transform="rotate(-179.514 131.176 92.1087)" fill="#2682D9"/>
<circle cx="121.176" cy="92.0238" r="1" transform="rotate(-179.514 121.176 92.0238)" fill="#2682D9"/>
<circle cx="111.176" cy="91.9389" r="1" transform="rotate(-179.514 111.176 91.9389)" fill="#2682D9"/>
<circle cx="101.176" cy="91.8541" r="1" transform="rotate(-179.514 101.176 91.8541)" fill="#2682D9"/>
<circle cx="91.177" cy="91.7692" r="1" transform="rotate(-179.514 91.177 91.7692)" fill="#2682D9"/>
<circle cx="171.259" cy="82.4486" r="1" transform="rotate(-179.514 171.259 82.4486)" fill="#2682D9"/>
<circle cx="161.26" cy="82.3637" r="1" transform="rotate(-179.514 161.26 82.3637)" fill="#2682D9"/>
<circle cx="151.26" cy="82.2788" r="1" transform="rotate(-179.514 151.26 82.2788)" fill="#2682D9"/>
<circle cx="141.26" cy="82.1939" r="1" transform="rotate(-179.514 141.26 82.1939)" fill="#2682D9"/>
<circle cx="131.26" cy="82.109" r="1" transform="rotate(-179.514 131.26 82.109)" fill="#2682D9"/>
<circle cx="121.261" cy="82.0242" r="1" transform="rotate(-179.514 121.261 82.0242)" fill="#2682D9"/>
<circle cx="111.261" cy="81.9393" r="1" transform="rotate(-179.514 111.261 81.9393)" fill="#2682D9"/>
<circle cx="101.261" cy="81.8544" r="1" transform="rotate(-179.514 101.261 81.8544)" fill="#2682D9"/>
<circle cx="91.2619" cy="81.7695" r="1" transform="rotate(-179.514 91.2619 81.7695)" fill="#2682D9"/>
<circle cx="171.343" cy="72.4489" r="1" transform="rotate(-179.514 171.343 72.4489)" fill="#2682D9"/>
<circle cx="161.344" cy="72.3641" r="1" transform="rotate(-179.514 161.344 72.3641)" fill="#2682D9"/>
<circle cx="151.344" cy="72.2792" r="1" transform="rotate(-179.514 151.344 72.2792)" fill="#2682D9"/>
<circle cx="141.344" cy="72.1943" r="1" transform="rotate(-179.514 141.344 72.1943)" fill="#2682D9"/>
<circle cx="131.345" cy="72.1094" r="1" transform="rotate(-179.514 131.345 72.1094)" fill="#2682D9"/>
<circle cx="121.345" cy="72.0245" r="1" transform="rotate(-179.514 121.345 72.0245)" fill="#2682D9"/>
<circle cx="111.345" cy="71.9396" r="1" transform="rotate(-179.514 111.345 71.9396)" fill="#2682D9"/>
<circle cx="101.346" cy="71.8548" r="1" transform="rotate(-179.514 101.346 71.8548)" fill="#2682D9"/>
<circle cx="91.3464" cy="71.7699" r="1" transform="rotate(-179.514 91.3464 71.7699)" fill="#2682D9"/>
<circle cx="171.428" cy="62.4493" r="1" transform="rotate(-179.514 171.428 62.4493)" fill="#2682D9"/>
<circle cx="161.429" cy="62.3644" r="1" transform="rotate(-179.514 161.429 62.3644)" fill="#2682D9"/>
<circle cx="151.429" cy="62.2795" r="1" transform="rotate(-179.514 151.429 62.2795)" fill="#2682D9"/>
<circle cx="141.429" cy="62.1947" r="1" transform="rotate(-179.514 141.429 62.1947)" fill="#2682D9"/>
<circle cx="131.43" cy="62.1098" r="1" transform="rotate(-179.514 131.43 62.1098)" fill="#2682D9"/>
<circle cx="121.43" cy="62.0249" r="1" transform="rotate(-179.514 121.43 62.0249)" fill="#2682D9"/>
<circle cx="111.43" cy="61.94" r="1" transform="rotate(-179.514 111.43 61.94)" fill="#2682D9"/>
<circle cx="101.431" cy="61.8551" r="1" transform="rotate(-179.514 101.431 61.8551)" fill="#2682D9"/>
<circle cx="91.4314" cy="61.7702" r="1" transform="rotate(-179.514 91.4314 61.7702)" fill="#2682D9"/>
<circle cx="171.513" cy="52.4497" r="1" transform="rotate(-179.514 171.513 52.4497)" fill="#2682D9"/>
<circle cx="161.514" cy="52.3648" r="1" transform="rotate(-179.514 161.514 52.3648)" fill="#2682D9"/>
<circle cx="151.514" cy="52.2799" r="1" transform="rotate(-179.514 151.514 52.2799)" fill="#2682D9"/>
<circle cx="141.514" cy="52.195" r="1" transform="rotate(-179.514 141.514 52.195)" fill="#2682D9"/>
<circle cx="131.515" cy="52.1101" r="1" transform="rotate(-179.514 131.515 52.1101)" fill="#2682D9"/>
<circle cx="121.515" cy="52.0253" r="1" transform="rotate(-179.514 121.515 52.0253)" fill="#2682D9"/>
<circle cx="111.515" cy="51.9404" r="1" transform="rotate(-179.514 111.515 51.9404)" fill="#2682D9"/>
<circle cx="101.516" cy="51.8555" r="1" transform="rotate(-179.514 101.516 51.8555)" fill="#2682D9"/>
<circle cx="91.5163" cy="51.7706" r="1" transform="rotate(-179.514 91.5163 51.7706)" fill="#2682D9"/>
<circle cx="171.598" cy="42.45" r="1" transform="rotate(-179.514 171.598 42.45)" fill="#2682D9"/>
<circle cx="161.599" cy="42.3652" r="1" transform="rotate(-179.514 161.599 42.3652)" fill="#2682D9"/>
<circle cx="151.599" cy="42.2803" r="1" transform="rotate(-179.514 151.599 42.2803)" fill="#2682D9"/>
<circle cx="141.599" cy="42.1954" r="1" transform="rotate(-179.514 141.599 42.1954)" fill="#2682D9"/>
<circle cx="131.6" cy="42.1105" r="1" transform="rotate(-179.514 131.6 42.1105)" fill="#2682D9"/>
<circle cx="121.6" cy="42.0256" r="1" transform="rotate(-179.514 121.6 42.0256)" fill="#2682D9"/>
<circle cx="111.6" cy="41.9407" r="1" transform="rotate(-179.514 111.6 41.9407)" fill="#2682D9"/>
<circle cx="101.601" cy="41.8559" r="1" transform="rotate(-179.514 101.601 41.8559)" fill="#2682D9"/>
<circle cx="91.6013" cy="41.771" r="1" transform="rotate(-179.514 91.6013 41.771)" fill="#2682D9"/>
<circle cx="171.683" cy="32.4504" r="1" transform="rotate(-179.514 171.683 32.4504)" fill="#2682D9"/>
<circle cx="161.684" cy="32.3655" r="1" transform="rotate(-179.514 161.684 32.3655)" fill="#2682D9"/>
<circle cx="151.684" cy="32.2806" r="1" transform="rotate(-179.514 151.684 32.2806)" fill="#2682D9"/>
<circle cx="141.684" cy="32.1958" r="1" transform="rotate(-179.514 141.684 32.1958)" fill="#2682D9"/>
<circle cx="131.685" cy="32.1109" r="1" transform="rotate(-179.514 131.685 32.1109)" fill="#2682D9"/>
<circle cx="121.685" cy="32.026" r="1" transform="rotate(-179.514 121.685 32.026)" fill="#2682D9"/>
<circle cx="111.685" cy="31.9411" r="1" transform="rotate(-179.514 111.685 31.9411)" fill="#2682D9"/>
<circle cx="101.686" cy="31.8562" r="1" transform="rotate(-179.514 101.686 31.8562)" fill="#2682D9"/>
<circle cx="91.6863" cy="31.7713" r="1" transform="rotate(-179.514 91.6863 31.7713)" fill="#2682D9"/>
<circle cx="171.768" cy="22.4507" r="1" transform="rotate(-179.514 171.768 22.4507)" fill="#2682D9"/>
<circle cx="161.769" cy="22.3659" r="1" transform="rotate(-179.514 161.769 22.3659)" fill="#2682D9"/>
<circle cx="151.769" cy="22.281" r="1" transform="rotate(-179.514 151.769 22.281)" fill="#2682D9"/>
<circle cx="141.769" cy="22.1961" r="1" transform="rotate(-179.514 141.769 22.1961)" fill="#2682D9"/>
<circle cx="131.77" cy="22.1112" r="1" transform="rotate(-179.514 131.77 22.1112)" fill="#2682D9"/>
<circle cx="121.77" cy="22.0263" r="1" transform="rotate(-179.514 121.77 22.0263)" fill="#2682D9"/>
<circle cx="111.77" cy="21.9414" r="1" transform="rotate(-179.514 111.77 21.9414)" fill="#2682D9"/>
<circle cx="101.771" cy="21.8566" r="1" transform="rotate(-179.514 101.771 21.8566)" fill="#2682D9"/>
<circle cx="91.7712" cy="21.7717" r="1" transform="rotate(-179.514 91.7712 21.7717)" fill="#2682D9"/>
<circle cx="171.853" cy="12.4511" r="1" transform="rotate(-179.514 171.853 12.4511)" fill="#2682D9"/>
<circle cx="161.853" cy="12.3662" r="1" transform="rotate(-179.514 161.853 12.3662)" fill="#2682D9"/>
<circle cx="151.853" cy="12.2813" r="1" transform="rotate(-179.514 151.853 12.2813)" fill="#2682D9"/>
<circle cx="141.854" cy="12.1965" r="1" transform="rotate(-179.514 141.854 12.1965)" fill="#2682D9"/>
<circle cx="131.854" cy="12.1116" r="1" transform="rotate(-179.514 131.854 12.1116)" fill="#2682D9"/>
<circle cx="121.855" cy="12.0267" r="1" transform="rotate(-179.514 121.855 12.0267)" fill="#2682D9"/>
<circle cx="111.855" cy="11.9418" r="1" transform="rotate(-179.514 111.855 11.9418)" fill="#2682D9"/>
<circle cx="101.855" cy="11.8569" r="1" transform="rotate(-179.514 101.855 11.8569)" fill="#2682D9"/>
<circle cx="91.8557" cy="11.772" r="1" transform="rotate(-179.514 91.8557 11.772)" fill="#2682D9"/>
<circle cx="171.938" cy="2.45148" r="1" transform="rotate(-179.514 171.938 2.45148)" fill="#2682D9"/>
<circle cx="161.938" cy="2.36661" r="1" transform="rotate(-179.514 161.938 2.36661)" fill="#2682D9"/>
<circle cx="151.938" cy="2.28171" r="1" transform="rotate(-179.514 151.938 2.28171)" fill="#2682D9"/>
<circle cx="141.939" cy="2.19684" r="1" transform="rotate(-179.514 141.939 2.19684)" fill="#2682D9"/>
<circle cx="131.939" cy="2.11194" r="1" transform="rotate(-179.514 131.939 2.11194)" fill="#2682D9"/>
<circle cx="121.94" cy="2.02707" r="1" transform="rotate(-179.514 121.94 2.02707)" fill="#2682D9"/>
<circle cx="111.94" cy="1.94217" r="1" transform="rotate(-179.514 111.94 1.94217)" fill="#2682D9"/>
<circle cx="101.94" cy="1.8573" r="1" transform="rotate(-179.514 101.94 1.8573)" fill="#2682D9"/>
<circle cx="91.9407" cy="1.7724" r="1" transform="rotate(-179.514 91.9407 1.7724)" fill="#2682D9"/>
<circle cx="81.0075" cy="111.684" r="1" transform="rotate(-179.514 81.0075 111.684)" fill="#2682D9"/>
<circle cx="71.008" cy="111.599" r="1" transform="rotate(-179.514 71.008 111.599)" fill="#2682D9"/>
<circle cx="61.008" cy="111.514" r="1" transform="rotate(-179.514 61.008 111.514)" fill="#2682D9"/>
<circle cx="51.0085" cy="111.429" r="1" transform="rotate(-179.514 51.0085 111.429)" fill="#2682D9"/>
<circle cx="41.009" cy="111.344" r="1" transform="rotate(-179.514 41.009 111.344)" fill="#2682D9"/>
<circle cx="31.0095" cy="111.259" r="1" transform="rotate(-179.514 31.0095 111.259)" fill="#2682D9"/>
<circle cx="21.0095" cy="111.174" r="1" transform="rotate(-179.514 21.0095 111.174)" fill="#2682D9"/>
<circle cx="11.01" cy="111.089" r="1" transform="rotate(-179.514 11.01 111.089)" fill="#2682D9"/>
<circle cx="1.01048" cy="111.004" r="1" transform="rotate(-179.514 1.01048 111.004)" fill="#2682D9"/>
<circle cx="81.0925" cy="101.684" r="1" transform="rotate(-179.514 81.0925 101.684)" fill="#2682D9"/>
<circle cx="71.093" cy="101.599" r="1" transform="rotate(-179.514 71.093 101.599)" fill="#2682D9"/>
<circle cx="61.093" cy="101.514" r="1" transform="rotate(-179.514 61.093 101.514)" fill="#2682D9"/>
<circle cx="51.0935" cy="101.429" r="1" transform="rotate(-179.514 51.0935 101.429)" fill="#2682D9"/>
<circle cx="41.094" cy="101.344" r="1" transform="rotate(-179.514 41.094 101.344)" fill="#2682D9"/>
<circle cx="31.0945" cy="101.26" r="1" transform="rotate(-179.514 31.0945 101.26)" fill="#2682D9"/>
<circle cx="21.0945" cy="101.175" r="1" transform="rotate(-179.514 21.0945 101.175)" fill="#2682D9"/>
<circle cx="11.0949" cy="101.09" r="1" transform="rotate(-179.514 11.0949 101.09)" fill="#2682D9"/>
<circle cx="1.09544" cy="101.005" r="1" transform="rotate(-179.514 1.09544 101.005)" fill="#2682D9"/>
<circle cx="81.1775" cy="91.6843" r="1" transform="rotate(-179.514 81.1775 91.6843)" fill="#2682D9"/>
<circle cx="71.178" cy="91.5994" r="1" transform="rotate(-179.514 71.178 91.5994)" fill="#2682D9"/>
<circle cx="61.178" cy="91.5145" r="1" transform="rotate(-179.514 61.178 91.5145)" fill="#2682D9"/>
<circle cx="51.1784" cy="91.4297" r="1" transform="rotate(-179.514 51.1784 91.4297)" fill="#2682D9"/>
<circle cx="41.1789" cy="91.3448" r="1" transform="rotate(-179.514 41.1789 91.3448)" fill="#2682D9"/>
<circle cx="31.1794" cy="91.2599" r="1" transform="rotate(-179.514 31.1794 91.2599)" fill="#2682D9"/>
<circle cx="21.1794" cy="91.175" r="1" transform="rotate(-179.514 21.1794 91.175)" fill="#2682D9"/>
<circle cx="11.1799" cy="91.0901" r="1" transform="rotate(-179.514 11.1799 91.0901)" fill="#2682D9"/>
<circle cx="1.1804" cy="91.0052" r="1" transform="rotate(-179.514 1.1804 91.0052)" fill="#2682D9"/>
<circle cx="81.2624" cy="81.6846" r="1" transform="rotate(-179.514 81.2624 81.6846)" fill="#2682D9"/>
<circle cx="71.2629" cy="81.5998" r="1" transform="rotate(-179.514 71.2629 81.5998)" fill="#2682D9"/>
<circle cx="61.2629" cy="81.5149" r="1" transform="rotate(-179.514 61.2629 81.5149)" fill="#2682D9"/>
<circle cx="51.2634" cy="81.43" r="1" transform="rotate(-179.514 51.2634 81.43)" fill="#2682D9"/>
<circle cx="41.2639" cy="81.3451" r="1" transform="rotate(-179.514 41.2639 81.3451)" fill="#2682D9"/>
<circle cx="31.2644" cy="81.2602" r="1" transform="rotate(-179.514 31.2644 81.2602)" fill="#2682D9"/>
<circle cx="21.2644" cy="81.1753" r="1" transform="rotate(-179.514 21.2644 81.1753)" fill="#2682D9"/>
<circle cx="11.2649" cy="81.0905" r="1" transform="rotate(-179.514 11.2649 81.0905)" fill="#2682D9"/>
<circle cx="1.26536" cy="81.0056" r="1" transform="rotate(-179.514 1.26536 81.0056)" fill="#2682D9"/>
<circle cx="81.3469" cy="71.685" r="1" transform="rotate(-179.514 81.3469 71.685)" fill="#2682D9"/>
<circle cx="71.3474" cy="71.6001" r="1" transform="rotate(-179.514 71.3474 71.6001)" fill="#2682D9"/>
<circle cx="61.3474" cy="71.5152" r="1" transform="rotate(-179.514 61.3474 71.5152)" fill="#2682D9"/>
<circle cx="51.3479" cy="71.4304" r="1" transform="rotate(-179.514 51.3479 71.4304)" fill="#2682D9"/>
<circle cx="41.3484" cy="71.3455" r="1" transform="rotate(-179.514 41.3484 71.3455)" fill="#2682D9"/>
<circle cx="31.3489" cy="71.2606" r="1" transform="rotate(-179.514 31.3489 71.2606)" fill="#2682D9"/>
<circle cx="21.3489" cy="71.1757" r="1" transform="rotate(-179.514 21.3489 71.1757)" fill="#2682D9"/>
<circle cx="11.3493" cy="71.0908" r="1" transform="rotate(-179.514 11.3493 71.0908)" fill="#2682D9"/>
<circle cx="1.34983" cy="71.0059" r="1" transform="rotate(-179.514 1.34983 71.0059)" fill="#2682D9"/>
<circle cx="81.4319" cy="61.6854" r="1" transform="rotate(-179.514 81.4319 61.6854)" fill="#2682D9"/>
<circle cx="71.4324" cy="61.6005" r="1" transform="rotate(-179.514 71.4324 61.6005)" fill="#2682D9"/>
<circle cx="61.4324" cy="61.5156" r="1" transform="rotate(-179.514 61.4324 61.5156)" fill="#2682D9"/>
<circle cx="51.4328" cy="61.4307" r="1" transform="rotate(-179.514 51.4328 61.4307)" fill="#2682D9"/>
<circle cx="41.4333" cy="61.3458" r="1" transform="rotate(-179.514 41.4333 61.3458)" fill="#2682D9"/>
<circle cx="31.4338" cy="61.261" r="1" transform="rotate(-179.514 31.4338 61.261)" fill="#2682D9"/>
<circle cx="21.4338" cy="61.1761" r="1" transform="rotate(-179.514 21.4338 61.1761)" fill="#2682D9"/>
<circle cx="11.4343" cy="61.0912" r="1" transform="rotate(-179.514 11.4343 61.0912)" fill="#2682D9"/>
<circle cx="1.43479" cy="61.0063" r="1" transform="rotate(-179.514 1.43479 61.0063)" fill="#2682D9"/>
<circle cx="81.5168" cy="51.6857" r="1" transform="rotate(-179.514 81.5168 51.6857)" fill="#2682D9"/>
<circle cx="71.5173" cy="51.6009" r="1" transform="rotate(-179.514 71.5173 51.6009)" fill="#2682D9"/>
<circle cx="61.5173" cy="51.516" r="1" transform="rotate(-179.514 61.5173 51.516)" fill="#2682D9"/>
<circle cx="51.5178" cy="51.4311" r="1" transform="rotate(-179.514 51.5178 51.4311)" fill="#2682D9"/>
<circle cx="41.5183" cy="51.3462" r="1" transform="rotate(-179.514 41.5183 51.3462)" fill="#2682D9"/>
<circle cx="31.5188" cy="51.2613" r="1" transform="rotate(-179.514 31.5188 51.2613)" fill="#2682D9"/>
<circle cx="21.5188" cy="51.1764" r="1" transform="rotate(-179.514 21.5188 51.1764)" fill="#2682D9"/>
<circle cx="11.5193" cy="51.0916" r="1" transform="rotate(-179.514 11.5193 51.0916)" fill="#2682D9"/>
<circle cx="1.51975" cy="51.0067" r="1" transform="rotate(-179.514 1.51975 51.0067)" fill="#2682D9"/>
<circle cx="81.6018" cy="41.6861" r="1" transform="rotate(-179.514 81.6018 41.6861)" fill="#2682D9"/>
<circle cx="71.6023" cy="41.6012" r="1" transform="rotate(-179.514 71.6023 41.6012)" fill="#2682D9"/>
<circle cx="61.6023" cy="41.5163" r="1" transform="rotate(-179.514 61.6023 41.5163)" fill="#2682D9"/>
<circle cx="51.6028" cy="41.4315" r="1" transform="rotate(-179.514 51.6028 41.4315)" fill="#2682D9"/>
<circle cx="41.6033" cy="41.3466" r="1" transform="rotate(-179.514 41.6033 41.3466)" fill="#2682D9"/>
<circle cx="31.6037" cy="41.2617" r="1" transform="rotate(-179.514 31.6037 41.2617)" fill="#2682D9"/>
<circle cx="21.6037" cy="41.1768" r="1" transform="rotate(-179.514 21.6037 41.1768)" fill="#2682D9"/>
<circle cx="11.6042" cy="41.0919" r="1" transform="rotate(-179.514 11.6042 41.0919)" fill="#2682D9"/>
<circle cx="1.60472" cy="41.007" r="1" transform="rotate(-179.514 1.60472 41.007)" fill="#2682D9"/>
<circle cx="81.6867" cy="31.6865" r="1" transform="rotate(-179.514 81.6867 31.6865)" fill="#2682D9"/>
<circle cx="71.6872" cy="31.6016" r="1" transform="rotate(-179.514 71.6872 31.6016)" fill="#2682D9"/>
<circle cx="61.6872" cy="31.5167" r="1" transform="rotate(-179.514 61.6872 31.5167)" fill="#2682D9"/>
<circle cx="51.6877" cy="31.4318" r="1" transform="rotate(-179.514 51.6877 31.4318)" fill="#2682D9"/>
<circle cx="41.6882" cy="31.3469" r="1" transform="rotate(-179.514 41.6882 31.3469)" fill="#2682D9"/>
<circle cx="31.6887" cy="31.2621" r="1" transform="rotate(-179.514 31.6887 31.2621)" fill="#2682D9"/>
<circle cx="21.6887" cy="31.1772" r="1" transform="rotate(-179.514 21.6887 31.1772)" fill="#2682D9"/>
<circle cx="11.6892" cy="31.0923" r="1" transform="rotate(-179.514 11.6892 31.0923)" fill="#2682D9"/>
<circle cx="1.68968" cy="31.0074" r="1" transform="rotate(-179.514 1.68968 31.0074)" fill="#2682D9"/>
<circle cx="81.7717" cy="21.6868" r="1" transform="rotate(-179.514 81.7717 21.6868)" fill="#2682D9"/>
<circle cx="71.7722" cy="21.6019" r="1" transform="rotate(-179.514 71.7722 21.6019)" fill="#2682D9"/>
<circle cx="61.7722" cy="21.517" r="1" transform="rotate(-179.514 61.7722 21.517)" fill="#2682D9"/>
<circle cx="51.7727" cy="21.4322" r="1" transform="rotate(-179.514 51.7727 21.4322)" fill="#2682D9"/>
<circle cx="41.7732" cy="21.3473" r="1" transform="rotate(-179.514 41.7732 21.3473)" fill="#2682D9"/>
<circle cx="31.7737" cy="21.2624" r="1" transform="rotate(-179.514 31.7737 21.2624)" fill="#2682D9"/>
<circle cx="21.7737" cy="21.1775" r="1" transform="rotate(-179.514 21.7737 21.1775)" fill="#2682D9"/>
<circle cx="11.7741" cy="21.0926" r="1" transform="rotate(-179.514 11.7741 21.0926)" fill="#2682D9"/>
<circle cx="1.77464" cy="21.0077" r="1" transform="rotate(-179.514 1.77464 21.0077)" fill="#2682D9"/>
<circle cx="81.8562" cy="11.6872" r="1" transform="rotate(-179.514 81.8562 11.6872)" fill="#2682D9"/>
<circle cx="71.8567" cy="11.6023" r="1" transform="rotate(-179.514 71.8567 11.6023)" fill="#2682D9"/>
<circle cx="61.8567" cy="11.5174" r="1" transform="rotate(-179.514 61.8567 11.5174)" fill="#2682D9"/>
<circle cx="51.8572" cy="11.4325" r="1" transform="rotate(-179.514 51.8572 11.4325)" fill="#2682D9"/>
<circle cx="41.8576" cy="11.3476" r="1" transform="rotate(-179.514 41.8576 11.3476)" fill="#2682D9"/>
<circle cx="31.8581" cy="11.2628" r="1" transform="rotate(-179.514 31.8581 11.2628)" fill="#2682D9"/>
<circle cx="21.8581" cy="11.1779" r="1" transform="rotate(-179.514 21.8581 11.1779)" fill="#2682D9"/>
<circle cx="11.8586" cy="11.093" r="1" transform="rotate(-179.514 11.8586 11.093)" fill="#2682D9"/>
<circle cx="1.85911" cy="11.0081" r="1" transform="rotate(-179.514 1.85911 11.0081)" fill="#2682D9"/>
<circle cx="81.9411" cy="1.68753" r="1" transform="rotate(-179.514 81.9411 1.68753)" fill="#2682D9"/>
<circle cx="71.9416" cy="1.60266" r="1" transform="rotate(-179.514 71.9416 1.60266)" fill="#2682D9"/>
<circle cx="61.9416" cy="1.51776" r="1" transform="rotate(-179.514 61.9416 1.51776)" fill="#2682D9"/>
<circle cx="51.9421" cy="1.43289" r="1" transform="rotate(-179.514 51.9421 1.43289)" fill="#2682D9"/>
<circle cx="41.9426" cy="1.34799" r="1" transform="rotate(-179.514 41.9426 1.34799)" fill="#2682D9"/>
<circle cx="31.9431" cy="1.26312" r="1" transform="rotate(-179.514 31.9431 1.26312)" fill="#2682D9"/>
<circle cx="21.9431" cy="1.17822" r="1" transform="rotate(-179.514 21.9431 1.17822)" fill="#2682D9"/>
<circle cx="11.9436" cy="1.09335" r="1" transform="rotate(-179.514 11.9436 1.09335)" fill="#2682D9"/>
<circle cx="1.94407" cy="1.00845" r="1" transform="rotate(-179.514 1.94407 1.00845)" fill="#2682D9"/>
</svg>
