<svg width="45" height="48" viewBox="0 0 45 48" fill="none" xmlns="http://www.w3.org/2000/svg">
<g clip-path="url(#clip0_456_313)">
<path d="M10.6631 38.1732L10.8973 39.1149H11.027C14.0134 39.1149 16.4946 41.7805 16.4946 45.206V47.2836C16.4946 47.3989 16.4607 47.4506 16.4455 47.4674C16.4344 47.4797 16.411 47.5 16.3459 47.5H1.29727C1.23217 47.5 1.20878 47.4797 1.19765 47.4674C1.18244 47.4506 1.14862 47.3989 1.14862 47.2836V45.206C1.14862 41.7842 3.62647 39.1149 6.68105 39.1149H6.87565L7.10984 38.1732C5.65915 37.4041 4.65132 35.7876 4.65132 33.8866C4.65132 31.2492 6.61359 29.1567 8.88646 29.1567C11.1593 29.1567 13.1216 31.2492 13.1216 33.8866C13.1216 35.7876 12.1138 37.4041 10.6631 38.1732ZM15.6973 47.0672H16.1973V46.5672V45.206C16.1973 42.1121 13.9433 39.5478 11.027 39.5478H6.61619C3.69986 39.5478 1.44592 42.1121 1.44592 45.206V46.5672V47.0672H1.94592H15.6973ZM8.88646 29.5896C6.68364 29.5896 4.94862 31.5807 4.94862 33.8866C4.94862 36.1924 6.68364 38.1836 8.88646 38.1836C11.0893 38.1836 12.8243 36.1924 12.8243 33.8866C12.8243 31.5807 11.0893 29.5896 8.88646 29.5896Z" fill="white" stroke="white"/>
<path d="M35.1873 36.28L35.3513 37.2523H35.481C39.5701 37.2523 42.9594 40.9208 42.9594 45.5643V47.2837C42.9594 47.399 42.9256 47.4507 42.9104 47.4675C42.8993 47.4798 42.8759 47.5001 42.8108 47.5001H24.2594C24.1943 47.5001 24.1709 47.4798 24.1598 47.4675C24.1446 47.4507 24.1108 47.399 24.1108 47.2837V45.5643C24.1108 40.9208 27.5001 37.2523 31.5892 37.2523H31.8486L32.0257 36.2847C29.9587 35.502 28.3919 33.3303 28.3919 30.7344C28.3919 27.456 30.8047 24.9299 33.6 24.9299C36.3917 24.9299 38.8081 27.5238 38.8081 30.7344C38.8081 33.3403 37.234 35.5695 35.1873 36.28ZM42.1621 47.0672H42.6621V46.5672V45.5643C42.6621 41.2524 39.5001 37.6852 35.481 37.6852H31.5243C27.5053 37.6852 24.3432 41.2524 24.3432 45.5643V46.5672V47.0672H24.8432H42.1621ZM33.5351 25.3628C30.8134 25.3628 28.6243 27.8554 28.6243 30.7344C28.6243 33.6134 30.8134 36.106 33.5351 36.106C36.2523 36.106 38.4459 33.69 38.4459 30.7344C38.4459 27.7838 36.3217 25.3628 33.5351 25.3628Z" fill="white" stroke="white"/>
<path d="M9.55496 21.7236L9.6568 21.4207L9.42479 21.2011C7.70947 19.5772 6.72699 17.2732 6.72699 14.9015C6.72699 9.96466 10.8968 5.87315 16.1513 5.87315C16.8329 5.87315 17.5099 5.94173 18.1191 6.0763L18.4755 6.15503L18.6591 5.83959C20.3169 2.99136 23.4563 1.21643 26.9189 1.21643C32.1734 1.21643 36.3432 5.30794 36.3432 10.2448C36.3432 12.6023 35.3063 14.8424 33.5732 16.5515L33.3508 16.7708L33.4504 17.0669L35.1274 22.0536C35.148 22.1657 35.1267 22.2608 35.0765 22.3354C35.0495 22.3498 35.0271 22.3567 35.0109 22.3591C34.9997 22.3607 34.9907 22.3604 34.9826 22.359C34.9757 22.3578 34.9653 22.3551 34.9511 22.3479L29.4498 18.9882L29.2734 18.8805L29.0724 18.9288C27.6552 19.269 26.3018 19.2695 24.9416 18.9964L24.5928 18.9263L24.4123 19.233C22.8143 21.9482 19.7338 23.8582 16.1513 23.8582C15.4264 23.8582 14.6933 23.7247 13.9067 23.5799L13.7187 23.5453L13.5556 23.6449L8.04206 27.0121L8.02361 27.0234L8.00827 27.0347C8.00743 27.035 8.00582 27.0357 8.00337 27.0363C7.99689 27.0381 7.98867 27.0391 7.98034 27.0385C7.97226 27.038 7.96697 27.0362 7.96439 27.035C7.96247 27.0341 7.96137 27.0333 7.9598 27.0316C7.88798 26.9523 7.85346 26.8433 7.87794 26.7104L9.55496 21.7236ZM33.0368 16.7504L33.0285 16.7253L33.0176 16.7013C33.0092 16.6826 33.006 16.6656 33.0165 16.631C33.0282 16.5923 33.0563 16.539 33.107 16.4784C35.0165 14.882 36.0459 12.6747 36.0459 10.2448C36.0459 5.49981 31.9672 1.64927 26.9189 1.64927C23.7722 1.64927 20.8343 3.23262 19.1205 5.57979L18.7252 6.12111L19.3567 6.34573C23.0041 7.64304 25.5756 10.978 25.5756 14.8299C25.5756 15.9035 25.3319 16.9882 24.9608 17.9445L24.7423 18.5077L25.3365 18.6171C26.5859 18.8471 27.8879 18.7673 29.2321 18.4703L29.2724 18.4614C29.2755 18.4626 29.2789 18.4639 29.2825 18.4654C29.2976 18.4716 29.3133 18.479 29.3284 18.487L33.5336 21.0594L34.6979 21.7716L34.2693 20.4758L33.0368 16.7504ZM13.6769 23.2153C13.692 23.2074 13.7077 23.1999 13.7229 23.1937C13.7273 23.1919 13.7315 23.1903 13.7353 23.1889L13.748 23.1924C14.5804 23.4223 15.4055 23.497 16.1513 23.497C21.1322 23.497 25.2783 19.6489 25.2783 14.9015C25.2783 10.1565 21.1996 6.30598 16.1513 6.30598C11.1656 6.30598 7.02859 10.157 6.95947 14.966L6.95942 14.966V14.9731C6.95942 17.3566 8.07397 19.5634 9.91414 21.2194L9.93238 21.2358L9.94856 21.2478C9.95008 21.2494 9.95386 21.2538 9.95903 21.2618C9.96894 21.2772 9.97924 21.2988 9.98642 21.3242C10.0019 21.3788 9.99421 21.4153 9.98771 21.4296L9.97681 21.4537L9.96851 21.4788L8.73607 25.2042L8.30741 26.4999L9.47168 25.7877L13.6769 23.2153Z" fill="white" stroke="white"/>
<path d="M11.1567 13.0374C12.0674 13.0374 12.927 13.9119 12.927 15.0448C12.927 16.1778 12.0674 17.0523 11.1567 17.0523C10.246 17.0523 9.38647 16.1778 9.38647 15.0448C9.38647 13.8499 10.2372 13.0374 11.1567 13.0374ZM11.1567 13.4702C10.3161 13.4702 9.68377 14.2434 9.68377 15.0448C9.68377 15.8462 10.3161 16.6194 11.1567 16.6194C11.9974 16.6194 12.6297 15.8462 12.6297 15.0448C12.6297 14.2434 11.9974 13.4702 11.1567 13.4702Z" fill="white" stroke="white"/>
<path d="M17.9216 15.0448C17.9216 16.1778 17.062 17.0523 16.1513 17.0523C15.2406 17.0523 14.381 16.1778 14.381 15.0448C14.381 13.9119 15.2406 13.0374 16.1513 13.0374C17.062 13.0374 17.9216 13.9119 17.9216 15.0448ZM17.6243 15.0448C17.6243 14.2434 16.992 13.4702 16.1513 13.4702C15.3317 13.4702 14.6783 14.1491 14.6783 15.0448C14.6783 15.8462 15.3107 16.6194 16.1513 16.6194C16.992 16.6194 17.6243 15.8462 17.6243 15.0448Z" fill="white" stroke="white"/>
<path d="M22.9162 15.0448C22.9162 16.1778 22.0566 17.0523 21.1459 17.0523C20.2352 17.0523 19.3757 16.1778 19.3757 15.0448C19.3757 13.9119 20.2352 13.0374 21.1459 13.0374C22.0566 13.0374 22.9162 13.9119 22.9162 15.0448ZM22.6189 15.0448C22.6189 14.2434 21.9866 13.4702 21.1459 13.4702C20.3263 13.4702 19.673 14.1491 19.673 15.0448C19.673 15.8462 20.3053 16.6194 21.1459 16.6194C21.9866 16.6194 22.6189 15.8462 22.6189 15.0448Z" fill="white" stroke="white"/>
<path d="M32.6918 6.66416H24.7184C24.7161 6.66345 24.7114 6.66178 24.7044 6.65815C24.6869 6.64918 24.6629 6.63197 24.6382 6.60469C24.5839 6.54473 24.5648 6.48098 24.5648 6.44774C24.5648 6.33242 24.5986 6.28072 24.6138 6.26393C24.625 6.25163 24.6484 6.23132 24.7135 6.23132H32.6918C32.7569 6.23132 32.7803 6.25163 32.7915 6.26393C32.8067 6.28072 32.8405 6.33242 32.8405 6.44774C32.8405 6.56306 32.8067 6.61476 32.7915 6.63156C32.7803 6.64385 32.7569 6.66416 32.6918 6.66416Z" fill="white" stroke="white"/>
<path d="M26.6595 9.4552H32.6919C32.757 9.4552 32.7804 9.47551 32.7915 9.4878C32.8067 9.5046 32.8405 9.5563 32.8405 9.67162C32.8405 9.78694 32.8067 9.83864 32.7915 9.85543C32.7804 9.86773 32.757 9.88804 32.6919 9.88804H26.6595C26.5944 9.88804 26.571 9.86773 26.5598 9.85543C26.5446 9.83864 26.5108 9.78693 26.5108 9.67162C26.5108 9.5563 26.5446 9.5046 26.5598 9.4878C26.571 9.47551 26.5944 9.4552 26.6595 9.4552Z" fill="white" stroke="white"/>
<path d="M27.9567 12.6791H32.6918C32.7569 12.6791 32.7803 12.6994 32.7915 12.7117C32.8067 12.7285 32.8405 12.7802 32.8405 12.8955C32.8405 13.0108 32.8067 13.0625 32.7915 13.0793C32.7803 13.0916 32.7569 13.1119 32.6918 13.1119H27.9567C27.8916 13.1119 27.8682 13.0916 27.8571 13.0793C27.8419 13.0625 27.808 13.0108 27.808 12.8955C27.808 12.7802 27.8419 12.7285 27.8571 12.7117C27.8682 12.6994 27.8916 12.6791 27.9567 12.6791Z" fill="white" stroke="white"/>
</g>
<defs>
<clipPath id="clip0_456_313">
<rect width="44.1081" height="48" fill="white"/>
</clipPath>
</defs>
</svg>
