<svg width="53" height="48" viewBox="0 0 53 48" fill="none" xmlns="http://www.w3.org/2000/svg">
<g clip-path="url(#clip0_456_382)">
<path d="M47.1965 13.847C47.7616 12.9633 48.1017 11.9546 48.187 10.9091C48.2722 9.86368 48.1002 8.81323 47.6858 7.84961C47.2714 6.886 46.6273 6.03855 45.8097 5.38133C44.9922 4.72411 44.0262 4.27712 42.996 4.07944C41.9659 3.88176 40.903 3.9394 39.9002 4.24732C38.8975 4.55524 37.9855 5.10406 37.2438 5.84584C36.5022 6.58761 35.9535 7.49974 35.6457 8.50252C35.3379 9.50529 35.2804 10.5682 35.4783 11.5983L29.5774 5.70265C28.6511 4.77807 27.3958 4.25879 26.087 4.25879C24.7782 4.25879 23.5229 4.77807 22.5965 5.70265L16.6957 11.5983C16.9546 10.2488 16.7739 8.85178 16.18 7.61257C15.5862 6.37337 14.6105 5.3573 13.3964 4.71365C12.1824 4.07 10.7939 3.83271 9.43493 4.03665C8.076 4.24058 6.8183 4.87499 5.84664 5.84666C4.87497 6.81833 4.24056 8.07602 4.03662 9.43495C3.83268 10.7939 4.06997 12.1824 4.71362 13.3965C5.35727 14.6106 6.37334 15.5862 7.61254 16.18C8.85175 16.7739 10.2487 16.9546 11.5983 16.6957L5.70263 22.5966C5.24419 23.0549 4.88053 23.5991 4.63242 24.1979C4.38431 24.7968 4.25661 25.4387 4.25661 26.087C4.25661 26.7353 4.38431 27.3772 4.63242 27.9761C4.88053 28.575 5.24419 29.1191 5.70263 29.5774L11.5931 35.4783C10.7396 35.3101 9.86086 35.3169 9.01014 35.4985C8.15942 35.6801 7.35446 36.0326 6.64408 36.5347C5.9337 37.0368 5.33271 37.6779 4.87757 38.4192C4.42242 39.1605 4.12262 39.9866 3.99633 40.8472C3.87004 41.7079 3.9199 42.5853 4.1429 43.4261C4.36589 44.2669 4.75736 45.0536 5.29357 45.7386C5.82977 46.4236 6.49953 46.9925 7.26222 47.4108C8.02492 47.8291 8.86464 48.0882 9.73045 48.1722C9.95403 48.1959 10.1787 48.2081 10.4035 48.2087C11.348 48.2073 12.2805 47.9973 13.1345 47.5939C13.9885 47.1905 14.7429 46.6036 15.3439 45.875C15.9449 45.1464 16.3777 44.2941 16.6114 43.379C16.845 42.4639 16.8738 41.5084 16.6957 40.5809L22.5965 46.4714C23.0549 46.9298 23.599 47.2934 24.1979 47.5416C24.7968 47.7897 25.4387 47.9174 26.087 47.9174C26.7352 47.9174 27.3771 47.7897 27.976 47.5416C28.5749 47.2934 29.1191 46.9298 29.5774 46.4714L35.3478 40.6957C35.7754 40.2681 36.0156 39.6882 36.0156 39.0835C36.0156 38.4788 35.7754 37.8989 35.3478 37.4714L35.1444 37.2679C34.7986 36.9318 34.3821 36.6773 33.9254 36.5229C33.4686 36.3686 32.9831 36.3183 32.5044 36.3757C31.6137 36.4676 30.7164 36.281 29.9361 35.8419C29.1558 35.4027 28.5308 34.7324 28.1472 33.9233C27.7636 33.1142 27.6402 32.2061 27.7941 31.324C27.948 30.4419 28.3715 29.6292 29.0063 28.9977C29.6412 28.3663 30.4562 27.9472 31.3391 27.7981C32.2221 27.649 33.1295 27.7773 33.9365 28.1653C34.7435 28.5533 35.4104 29.1819 35.8453 29.9646C36.2803 30.7472 36.4619 31.6455 36.3652 32.5357C36.3085 33.0096 36.3592 33.4902 36.5136 33.9419C36.6681 34.3935 36.9223 34.8045 37.2574 35.1444L37.4661 35.3531C37.8946 35.781 38.4754 36.0213 39.0809 36.0213C39.6864 36.0213 40.2672 35.781 40.6957 35.3531L46.4713 29.5774C47.3956 28.652 47.9147 27.3975 47.9147 26.0896C47.9147 24.7817 47.3956 23.5272 46.4713 22.6018L40.5809 16.6957C41.842 16.9351 43.1458 16.7917 44.3248 16.2841C45.5037 15.7764 46.5039 14.9277 47.1965 13.847ZM39.0261 15.1983C38.6409 15.5838 38.4245 16.1064 38.4245 16.6513C38.4245 17.1963 38.6409 17.7189 39.0261 18.1044L44.9948 24.0731C45.5288 24.6073 45.8287 25.3317 45.8287 26.087C45.8287 26.8423 45.5288 27.5667 44.9948 28.1009L39.2191 33.8713C39.1821 33.9074 39.1325 33.9275 39.0809 33.9275C39.0292 33.9275 38.9796 33.9074 38.9426 33.8713L38.7339 33.6627C38.6206 33.5427 38.5355 33.3989 38.485 33.2418C38.4344 33.0848 38.4197 32.9184 38.4418 32.7548C38.5913 31.3694 38.2858 29.9729 37.5715 28.7764C36.8571 27.58 35.7727 26.6485 34.4822 26.1229C33.1916 25.5972 31.765 25.5059 30.418 25.8628C29.071 26.2196 27.8767 27.0053 27.0157 28.1009C26.1559 29.2087 25.6793 30.5657 25.6576 31.9678C25.636 33.3699 26.0705 34.7411 26.8957 35.8748C27.5571 36.7733 28.4419 37.4834 29.4623 37.9345C30.4827 38.3857 31.6033 38.5624 32.7131 38.447C32.8839 38.4225 33.058 38.436 33.2231 38.4865C33.3881 38.537 33.54 38.6233 33.6678 38.7392L33.8713 38.9427C33.8898 38.9606 33.9044 38.9821 33.9145 39.0059C33.9245 39.0296 33.9296 39.0551 33.9296 39.0809C33.9296 39.1067 33.9245 39.1322 33.9145 39.1559C33.9044 39.1797 33.8898 39.2012 33.8713 39.2192L28.1009 44.9948C27.8367 45.2598 27.5229 45.4701 27.1773 45.6136C26.8317 45.7571 26.4612 45.8309 26.087 45.8309C25.7128 45.8309 25.3423 45.7571 24.9967 45.6136C24.6511 45.4701 24.3372 45.2598 24.0731 44.9948L18.1096 39.0313C17.9192 38.839 17.6925 38.6864 17.4426 38.5825C17.1927 38.4785 16.9246 38.4254 16.6539 38.4261C16.3498 38.4255 16.0493 38.4925 15.7743 38.6224C15.4993 38.7522 15.2565 38.9416 15.0638 39.1769C14.871 39.4121 14.7329 39.6873 14.6596 39.9825C14.5864 40.2776 14.5797 40.5854 14.64 40.8835C14.7853 41.5782 14.7579 42.2979 14.5602 42.9794C14.3624 43.661 14.0004 44.2836 13.5058 44.7926C13.0113 45.3016 12.3994 45.6814 11.7238 45.8987C11.0482 46.116 10.3296 46.1641 9.63104 46.0389C8.9325 45.9136 8.27539 45.6188 7.71738 45.1803C7.15938 44.7419 6.71753 44.1731 6.43064 43.524C6.14375 42.8749 6.02058 42.1653 6.07194 41.4575C6.12331 40.7497 6.34764 40.0653 6.72524 39.4644C7.19755 38.7171 7.88677 38.1318 8.70073 37.7869C9.51468 37.4419 10.4146 37.3536 11.28 37.534C11.7126 37.6222 12.162 37.5688 12.5619 37.3818C12.9618 37.1947 13.2908 36.8839 13.5003 36.4953C13.7098 36.1068 13.7887 35.6611 13.7252 35.2242C13.6617 34.7873 13.4593 34.3825 13.1478 34.0696L7.17915 28.1009C6.64517 27.5667 6.3452 26.8423 6.3452 26.087C6.3452 25.3317 6.64517 24.6073 7.17915 24.0731L13.1478 18.1096C13.4608 17.7974 13.6648 17.3926 13.7296 16.9553C13.7943 16.518 13.7164 16.0714 13.5073 15.6819C13.2982 15.2924 12.9691 14.9807 12.5688 14.793C12.1685 14.6053 11.7184 14.5517 11.2852 14.64C10.4191 14.8192 9.51884 14.7305 8.7043 14.3857C7.88976 14.0409 7.19948 13.4563 6.72524 12.7096C6.34748 12.109 6.12292 11.4248 6.07126 10.7171C6.0196 10.0094 6.14243 9.29983 6.42895 8.65068C6.71548 8.00153 7.15695 7.43262 7.71463 6.99389C8.27231 6.55515 8.92914 6.26 9.6275 6.13432C10.3259 6.00864 11.0444 6.05629 11.72 6.27308C12.3957 6.48986 13.0078 6.86916 13.5026 7.37769C13.9975 7.88622 14.36 8.50844 14.5583 9.18973C14.7566 9.87103 14.7847 10.5906 14.64 11.2853C14.5707 11.6169 14.5854 11.9605 14.6829 12.285C14.7804 12.6094 14.9576 12.9042 15.1983 13.1427C15.5877 13.5204 16.1088 13.7316 16.6513 13.7316C17.1938 13.7316 17.715 13.5204 18.1044 13.1427L24.0731 7.17918C24.6079 6.64647 25.3321 6.34738 26.087 6.34738C26.8419 6.34738 27.566 6.64647 28.1009 7.17918L34.0644 13.1479C34.454 13.5271 34.9763 13.7393 35.52 13.7393C36.0638 13.7393 36.586 13.5271 36.9757 13.1479C37.216 12.9092 37.3928 12.6143 37.4903 12.29C37.5878 11.9656 37.6028 11.6221 37.5339 11.2905C37.3413 10.3765 37.4489 9.4247 37.8409 8.57683C38.2329 7.72897 38.8882 7.03037 39.7093 6.58504C40.5304 6.13971 41.4734 5.97146 42.3978 6.10535C43.3222 6.23923 44.1787 6.66809 44.8397 7.32808C45.5008 7.98806 45.9309 8.84387 46.0663 9.76811C46.2016 10.6923 46.0348 11.6356 45.5908 12.4573C45.1467 13.2791 44.4491 13.9355 43.6019 14.3288C42.7546 14.7221 41.803 14.8313 40.8887 14.64C40.5563 14.5698 40.2116 14.5841 39.8862 14.6816C39.5608 14.7791 39.265 14.9568 39.0261 15.1983Z" fill="white"/>
</g>
<defs>
<clipPath id="clip0_456_382">
<rect width="52.1739" height="48" fill="white"/>
</clipPath>
</defs>
</svg>
