<svg width="48" height="48" viewBox="0 0 48 48" fill="none" xmlns="http://www.w3.org/2000/svg">
<path d="M42.1856 18.5254L42.1884 18.5215L36.2841 14.1883L36.1585 14.1222C35.9777 14.0599 32.0962 12.7497 28.5492 14.4867C27.1951 13.6571 25.6398 13.2139 24.0518 13.205C22.4638 13.1961 20.9036 13.6219 19.5403 14.4363L19.4542 14.4881C15.9056 12.7478 12.0224 14.0599 11.8416 14.1223L5.81159 18.5215L5.81447 18.5254C4.66251 19.301 3.7082 20.3356 3.02798 21.5463C2.34777 22.7571 1.96057 24.1103 1.89739 25.4976C1.83421 26.8849 2.09682 28.2677 2.66416 29.5352C3.23151 30.8028 4.08783 31.9198 5.16453 32.7969C6.24123 33.674 7.50839 34.2868 8.86448 34.5861C10.2206 34.8854 11.6279 34.8629 12.9738 34.5205C14.3196 34.1781 15.5666 33.5252 16.6148 32.6142C17.6629 31.7032 18.4832 30.5594 19.0098 29.2744L19.013 29.276L21.6816 23.7218H26.3183L28.9866 29.2755L28.9901 29.2738C29.5198 30.5529 30.3411 31.6904 31.3884 32.5957C32.4358 33.501 33.6803 34.1489 35.0226 34.4878C36.3648 34.8268 37.7677 34.8472 39.1193 34.5477C40.4709 34.2481 41.7338 33.6368 42.8071 32.7624C43.8805 31.8881 44.7346 30.775 45.3014 29.512C45.8682 28.2489 46.1319 26.8709 46.0716 25.4878C46.0112 24.1048 45.6284 22.7549 44.9537 21.5461C44.279 20.3372 43.3311 19.3028 42.1856 18.5254L42.1856 18.5254ZM27.5852 15.0416C27.5397 15.0723 27.4929 15.0962 27.4477 15.1282C26.3812 15.6767 25.1993 15.9628 24 15.9628C22.8008 15.9628 21.6188 15.6767 20.5524 15.1282C20.5092 15.0976 20.4645 15.0749 20.4212 15.0455C21.5267 14.468 22.7554 14.166 24.0027 14.1653C25.25 14.1646 26.479 14.4652 27.5852 15.0416ZM24 20.3547C23.6649 20.3561 23.337 20.2579 23.0577 20.0728C22.7784 19.8876 22.5604 19.6237 22.4312 19.3145C22.302 19.0053 22.2675 18.6647 22.332 18.3358C22.3965 18.007 22.5572 17.7047 22.7937 17.4673C23.0301 17.2298 23.3317 17.0679 23.6603 17.002C23.9889 16.9361 24.3296 16.9692 24.6393 17.0971C24.9491 17.225 25.2139 17.4419 25.4002 17.7204C25.5866 17.999 25.6861 18.3265 25.6861 18.6616C25.6865 19.1096 25.5093 19.5394 25.1932 19.8568C24.8771 20.1742 24.448 20.3533 24 20.3547ZM10.8 33.8351C9.22752 33.8401 7.68888 33.3784 6.37894 32.5084C5.069 31.6384 4.04668 30.3992 3.44143 28.9479C2.83617 27.4965 2.67521 25.8981 2.97892 24.3552C3.28262 22.8123 4.03734 21.3942 5.14751 20.2805C6.25767 19.1668 7.67335 18.4075 9.21529 18.0989C10.7572 17.7903 12.3561 17.9462 13.8094 18.5468C15.2627 19.1474 16.5051 20.1657 17.3792 21.4729C18.2534 22.7801 18.72 24.3172 18.72 25.8897C18.7209 27.9929 17.8876 30.0105 16.4029 31.5C14.9181 32.9895 12.9031 33.8292 10.8 33.835V33.8351ZM19.67 25.6916C19.6546 24.416 19.3624 23.1589 18.8137 22.0072C18.265 20.8555 17.4728 19.8367 16.4919 19.0211C15.5109 18.2054 14.3646 17.6124 13.1322 17.2831C11.8997 16.9537 10.6104 16.8958 9.35337 17.1134L12.2217 15.0082C12.7796 14.8338 16.8581 13.6722 20.0231 15.9297L20.0803 15.9644C20.7488 16.3112 21.4606 16.5672 22.1968 16.7257C21.9098 16.9931 21.6857 17.3209 21.5409 17.6855C21.3961 18.0501 21.3341 18.4423 21.3595 18.8338C21.3848 19.2253 21.4969 19.6062 21.6875 19.9491C21.8782 20.2919 22.1427 20.5881 22.4618 20.8162C22.0438 21.0903 21.7061 21.4706 21.4833 21.918L19.67 25.6916ZM22.1429 22.7618L22.3453 22.3404C22.4981 22.0329 22.7335 21.7741 23.0251 21.5929C23.3167 21.4117 23.653 21.3154 23.9964 21.3147C24.3397 21.3141 24.6764 21.409 24.9687 21.589C25.2611 21.769 25.4975 22.0269 25.6514 22.3338L25.857 22.7618H22.1429ZM25.5386 20.816C25.8577 20.5878 26.1221 20.2916 26.3127 19.9488C26.5033 19.6059 26.6153 19.225 26.6406 18.8336C26.6659 18.4421 26.6039 18.05 26.4591 17.6854C26.3143 17.3209 26.0903 16.9931 25.8032 16.7257C26.5394 16.5672 27.2512 16.3112 27.9197 15.9644L27.9769 15.9297C31.1414 13.6727 35.2205 14.8333 35.7783 15.0082L38.6467 17.1134C37.3896 16.8958 36.1002 16.9537 34.8676 17.2831C33.6351 17.6126 32.4887 18.2056 31.5078 19.0214C30.5269 19.8371 29.7347 20.8561 29.186 22.0079C28.6374 23.1597 28.3453 24.4169 28.33 25.6927L26.5135 21.9119C26.2915 21.4666 25.955 21.0883 25.5386 20.816V20.816ZM37.2 33.835C35.6275 33.8401 34.0889 33.3783 32.7789 32.5084C31.469 31.6384 30.4467 30.3992 29.8414 28.9478C29.2362 27.4965 29.0752 25.8981 29.3789 24.3552C29.6826 22.8123 30.4373 21.3942 31.5475 20.2805C32.6577 19.1668 34.0734 18.4075 35.6153 18.0989C37.1572 17.7903 38.7561 17.9461 40.2094 18.5468C41.6627 19.1474 42.9051 20.1657 43.7792 21.4729C44.6534 22.7801 45.12 24.3172 45.12 25.8897C45.1209 27.9929 44.2876 30.0105 42.8029 31.5C41.3181 32.9895 39.3032 33.8292 37.2 33.835Z" fill="#F37F02"/>
<path d="M10.8 18.9102C9.41868 18.9063 8.06729 19.3123 6.91689 20.0769C5.76649 20.8415 4.86881 21.9302 4.33751 23.2052C3.80621 24.4802 3.66518 25.8842 3.93226 27.2395C4.19935 28.5947 4.86254 29.8402 5.83788 30.8183C6.81323 31.7964 8.05686 32.4631 9.41133 32.734C10.7658 33.0049 12.1702 32.8679 13.4467 32.3402C14.7232 31.8125 15.8145 30.9179 16.5823 29.7696C17.3501 28.6214 17.76 27.2712 17.76 25.8899C17.7604 24.042 17.0279 22.2694 15.7231 20.9609C14.4183 19.6524 12.6478 18.9149 10.8 18.9102ZM10.8 31.9095C9.60854 31.9134 8.44276 31.5637 7.45023 30.9046C6.4577 30.2456 5.68307 29.3068 5.22443 28.2072C4.76579 27.1075 4.64376 25.8966 4.87381 24.7276C5.10385 23.5585 5.67562 22.4841 6.51671 21.6402C7.35779 20.7964 8.43037 20.2211 9.59862 19.9873C10.7669 19.7534 11.9782 19.8714 13.0793 20.3265C14.1805 20.7815 15.1218 21.5531 15.7841 22.5434C16.4464 23.5338 16.8 24.6984 16.8 25.8899C16.8008 27.4832 16.1695 29.0118 15.0447 30.1404C13.9199 31.2689 12.3933 31.9051 10.8 31.9096V31.9095Z" fill="#F37F02"/>
<path d="M37.1999 18.9102C35.8186 18.9063 34.4672 19.3123 33.3168 20.0769C32.1664 20.8415 31.2687 21.9302 30.7374 23.2052C30.2061 24.4802 30.0651 25.8842 30.3322 27.2395C30.5992 28.5947 31.2624 29.8402 32.2378 30.8183C33.2131 31.7964 34.4568 32.4631 35.8112 32.734C37.1657 33.0049 38.5701 32.8679 39.8466 32.3402C41.1231 31.8125 42.2144 30.9179 42.9822 29.7696C43.75 28.6214 44.1599 27.2712 44.1599 25.8899C44.1603 24.042 43.4278 22.2694 42.123 20.9609C40.8183 19.6524 39.0477 18.9149 37.1999 18.9102ZM37.1999 31.9095C36.0084 31.9134 34.8427 31.5637 33.8501 30.9046C32.8576 30.2456 32.083 29.3068 31.6243 28.2072C31.1657 27.1075 31.0437 25.8966 31.2737 24.7276C31.5038 23.5585 32.0755 22.4841 32.9166 21.6402C33.7577 20.7964 34.8303 20.2211 35.9985 19.9873C37.1668 19.7534 38.3781 19.8714 39.4793 20.3265C40.5804 20.7815 41.5217 21.5531 42.184 22.5434C42.8463 23.5338 43.1999 24.6984 43.1999 25.8899C43.2007 27.4832 42.5694 29.0118 41.4446 30.1404C40.3198 31.2689 38.7932 31.9051 37.1999 31.9096V31.9095Z" fill="#F37F02"/>
<path d="M41.04 25.8899C41.0406 26.9097 40.6366 27.8881 39.9167 28.6105C39.1968 29.3329 38.2198 29.7402 37.2 29.743V30.703C38.4743 30.6998 39.6953 30.1913 40.5952 29.289C41.495 28.3866 42.0002 27.1642 42 25.8899H41.04Z" fill="#F37F02"/>
<path d="M6.94682 25.8899H5.98682C5.99001 27.1642 6.49855 28.3853 7.40087 29.2851C8.30319 30.185 9.52561 30.6902 10.7999 30.6899V29.7299C9.78011 29.7305 8.80169 29.3266 8.07933 28.6067C7.35697 27.8868 6.94968 26.9097 6.94682 25.8899Z" fill="#F37F02"/>
</svg>
